<?xml version="1.0" encoding="UTF-8"?>
<!DOCTYPE svg PUBLIC "-//W3C//DTD SVG 1.1//EN" "http://www.w3.org/Graphics/SVG/1.1/DTD/svg11.dtd">
<!-- Creator: CorelDRAW 2018 (64-Bit) -->
<svg xmlns="http://www.w3.org/2000/svg" xml:space="preserve" width="34.9304mm" height="34.9304mm" version="1.1" style="shape-rendering:geometricPrecision; text-rendering:geometricPrecision; image-rendering:optimizeQuality; fill-rule:evenodd; clip-rule:evenodd"
viewBox="0 0 541.77 541.77"
 xmlns:xlink="http://www.w3.org/1999/xlink">
 <defs>
  <style type="text/css">
   <![CDATA[
    .str2 {stroke:#2B2A29;stroke-width:3.1;stroke-miterlimit:22.9256}
    .str1 {stroke:#2B2A29;stroke-width:1.18;stroke-miterlimit:22.9256}
    .str0 {stroke:#2B2A29;stroke-width:1.18;stroke-linejoin:round;stroke-miterlimit:22.9256}
    .fil2 {fill:#FEFEFE}
    .fil1 {fill:#2B2A29}
    .fil0 {fill:#00A400}
   ]]>
  </style>
 </defs>
 <g id="Слой_x0020_1">
  <metadata id="CorelCorpID_0Corel-Layer"/>
  <g id="_2615347468800">
   <rect class="fil0" y="0" width="541.77" height="541.77" rx="83.35" ry="83.35"/>
   <rect class="fil1 str0" x="127.88" y="117.57" width="288.68" height="288.68" rx="14.43" ry="14.31"/>
   <rect class="fil2 str1" x="182.49" y="61" width="19.8" height="56.58"/>
   <rect class="fil2 str1" x="222.23" y="61.18" width="19.8" height="56.58"/>
   <rect class="fil2 str1" transform="matrix(2.74625E-14 -1.03403 1.03403 2.74625E-14 71.2457 191.628)" width="19.15" height="54.72"/>
   <rect class="fil2 str1" transform="matrix(2.74625E-14 -1.03403 1.03403 2.74625E-14 71.1335 231.723)" width="19.15" height="54.72"/>
   <rect class="fil2 str1" x="261.97" y="61" width="19.8" height="56.58"/>
   <rect class="fil2 str1" x="302.42" y="60.8" width="19.8" height="56.58"/>
   <rect class="fil2 str1" x="342.51" y="61.04" width="19.8" height="56.58"/>
   <rect class="fil2 str1" x="182.13" y="406.58" width="19.8" height="56.58"/>
   <rect class="fil2 str1" x="222.58" y="406.79" width="19.8" height="56.58"/>
   <rect class="fil2 str1" x="262.32" y="406.6" width="19.8" height="56.58"/>
   <rect class="fil2 str1" x="302.77" y="406.41" width="19.8" height="56.58"/>
   <rect class="fil2 str1" x="342.87" y="406.65" width="19.8" height="56.58"/>
   <rect class="fil2 str1" transform="matrix(2.73859E-14 -1.03403 1.03403 2.73859E-14 71.2313 352.007)" width="19.15" height="54.72"/>
   <rect class="fil2 str1" transform="matrix(2.73859E-14 -1.03403 1.03403 2.73859E-14 71.3195 311.912)" width="19.15" height="54.72"/>
   <rect class="fil2 str1" transform="matrix(2.73859E-14 -1.03403 1.03403 2.73859E-14 70.9426 271.818)" width="19.15" height="54.72"/>
   <rect class="fil2 str1" transform="matrix(2.74625E-14 -1.03403 1.03403 2.74625E-14 416.702 191.628)" width="19.15" height="54.72"/>
   <rect class="fil2 str1" transform="matrix(2.74625E-14 -1.03403 1.03403 2.74625E-14 416.571 231.723)" width="19.15" height="54.72"/>
   <rect class="fil2 str1" transform="matrix(2.73859E-14 -1.03403 1.03403 2.73859E-14 416.486 352.007)" width="19.15" height="54.72"/>
   <rect class="fil2 str1" transform="matrix(2.73859E-14 -1.03403 1.03403 2.73859E-14 416.441 311.912)" width="19.15" height="54.72"/>
   <rect class="fil2 str1" transform="matrix(2.73859E-14 -1.03403 1.03403 2.73859E-14 416.335 271.818)" width="19.15" height="54.72"/>
   <circle class="fil2 str2" cx="171.99" cy="161.68" r="20.05"/>
  </g>
 </g>
</svg>
